# xmcd
#
# Track frame offsets:
#	150
#	11642
#	27677
#	45924
#	60514
#	87607
#	100259
#	116984
#	131584
#	141799
#	151937
#	171714
#	186532
#	202437
#	212374
#	223194
#
# Disc length: 3177 seconds
#
# Revision: 2
# Processed by: cddbd v1.5.2PL0 Copyright (c) Steve Scherf et al.
# Submitted via: audiograbber 1.83.01
#
DISCID=fc0c6710
DTITLE=Riders in the Sky - Silver Jubilee [CD1]
DYEAR=2003
DGENRE=Country
TTITLE0=Texas Plains
TTITLE1=Cool Water
TTITLE2=Back in the Saddle Again
TTITLE3=Compadres In The Old Sierra Madres
TTITLE4=Sidekick Heaven
TTITLE5=Blue Bonnet Lady
TTITLE6=(Ghost) Riders in the Sky
TTITLE7=The Line Rider
TTITLE8=We're Burnin' Moonlight
TTITLE9=Phantom of the Chuckwagon
TTITLE10=La Malaguena
TTITLE11=Here Comes the Sante Fe
TTITLE12=The Arms of My Love
TTITLE13=Salting of the Slug
TTITLE14=Way Out There
TTITLE15=Tumbling Tumbleweeds
EXTD=YEAR: 2003
EXTT0=
EXTT1=
EXTT2=
EXTT3=
EXTT4=
EXTT5=
EXTT6=
EXTT7=
EXTT8=
EXTT9=
EXTT10=
EXTT11=
EXTT12=
EXTT13=
EXTT14=
EXTT15=
PLAYORDER=
